<svg width="18" height="20" fill="none" xmlns="http://www.w3.org/2000/svg"><g clip-path="url(#a)"><path d="M15 3.982H3c-.825 0-1.492.68-1.492 1.51L1.5 14.543c0 .83.675 1.509 1.5 1.509h12c.825 0 1.5-.68 1.5-1.51V5.492c0-.83-.675-1.509-1.5-1.509Zm-.3 3.207-5.302 3.334a.755.755 0 0 1-.796 0L3.3 7.189a.646.646 0 0 1-.3-.544c0-.505.547-.807.975-.543L9 9.263l5.025-3.16a.637.637 0 0 1 .975.542.646.646 0 0 1-.3.544Z" fill="#212121"/></g><defs><clipPath id="a"><path fill="#fff" transform="translate(0 .965)" d="M0 0h18v18.105H0z"/></clipPath></defs></svg>