<svg width="22" height="24" fill="none" xmlns="http://www.w3.org/2000/svg"><g filter="url(#a)"><path d="m15.996 11.755-1.838-.211a1.436 1.436 0 0 0-1.187.415l-1.332 1.34A10.92 10.92 0 0 1 6.87 8.5l1.34-1.347c.31-.313.462-.75.412-1.193l-.21-1.835a1.451 1.451 0 0 0-1.44-1.288H5.72c-.818 0-1.498.684-1.448 1.507.384 6.216 5.327 11.18 11.5 11.566.817.051 1.498-.633 1.498-1.455v-1.26a1.44 1.44 0 0 0-1.274-1.441Z" fill="#212121"/></g><defs><filter id="a" x="-2" y=".567" width="26" height="26.105" filterUnits="userSpaceOnUse" color-interpolation-filters="sRGB"><feFlood flood-opacity="0" result="BackgroundImageFix"/><feColorMatrix in="SourceAlpha" values="0 0 0 0 0 0 0 0 0 0 0 0 0 0 0 0 0 0 127 0" result="hardAlpha"/><feOffset dy="4"/><feGaussianBlur stdDeviation="2"/><feComposite in2="hardAlpha" operator="out"/><feColorMatrix values="0 0 0 0 0 0 0 0 0 0 0 0 0 0 0 0 0 0 0.25 0"/><feBlend in2="BackgroundImageFix" result="effect1_dropShadow"/><feBlend in="SourceGraphic" in2="effect1_dropShadow" result="shape"/></filter></defs></svg>